<svg id="Capa_1" enable-background="new 0 0 512 512" height="512" viewBox="0 0 512 512" width="512" xmlns="http://www.w3.org/2000/svg"><g><path d="m408.53 219.02-175.01 175c-46.87 46.87-133.45 36.26-180.32-10.6-68.6-68.6-42.42-148.5-51.2-297.72.2-8.28 3.81-16.49 10.82-22.35 11.09-9.27 27.57-9.18 38.57.2 3.53 3.01 6.19 6.62 7.95 10.54 1.77 3.91 2.65 8.13 2.65 12.34 0 .04 5.45 53.56 9.78 88.92l167.76-167.76c8.78-8.79 23.03-8.79 31.82 0 8.78 8.79 8.78 23.03 0 31.82l-79.91 79.9c-5.66 5.67-5.66 14.85 0 20.51 5.67 5.66 14.85 5.66 20.51 0l101.12-101.12c8.78-8.78 23.03-8.78 31.82 0 8.78 8.79 8.78 23.04 0 31.82l-101.12 101.12c-5.66 5.66-5.66 14.84 0 20.5l.71.71c5.66 5.66 14.84 5.66 20.5 0l79.91-79.9c8.78-8.79 23.03-8.79 31.82 0 8.78 8.79 8.78 23.03 0 31.82l-79.91 79.9c-5.66 5.66-5.66 14.85 0 20.51l.71.71c5.66 5.66 14.84 5.66 20.51 0l58.69-58.69c8.78-8.79 23.03-8.79 31.82 0 8.78 8.78 8.78 23.03 0 31.82z" fill="#ffbfab"/><path d="m408.53 219.02-175.01 175c-46.87 46.87-133.45 36.26-180.32-10.6l191.28-190.57c5.66 5.66 14.84 5.66 20.5 0l79.91-79.9c8.78-8.79 23.03-8.79 31.82 0 8.78 8.79 8.78 23.03 0 31.82l-79.91 79.9c-5.66 5.66-5.66 14.85 0 20.51l.71.71c5.66 5.66 14.84 5.66 20.51 0l58.69-58.69c8.78-8.79 23.03-8.79 31.82 0 8.78 8.78 8.78 23.03 0 31.82z" fill="#f89580"/><path d="m406.53 306.7-175.01 175.01c-46.87 46.86-133.45 36.26-180.32-10.61-68.6-68.6-42.42-148.49-51.2-297.72.2-8.27 3.81-16.48 10.82-22.34 11.09-9.27 27.57-9.19 38.57.19 3.53 3.01 6.19 6.63 7.95 10.55 1.77 3.91 2.65 8.12 2.65 12.34 0 .03 5.45 53.56 9.78 88.92 5.99-6 150.03-150.03 167.76-167.76 8.78-8.79 23.03-8.79 31.82 0 8.78 8.78 8.78 23.03 0 31.82l-79.91 79.9c-5.66 5.66-5.66 14.84 0 20.5 5.67 5.67 14.85 5.67 20.51 0l101.12-101.11c8.78-8.79 23.03-8.79 31.82 0 8.78 8.79 8.78 23.03 0 31.82l-101.12 101.11c-5.66 5.67-5.66 14.85 0 20.51l.71.71c5.66 5.66 14.84 5.66 20.5 0l79.91-79.91c8.78-8.78 23.03-8.78 31.82 0 8.78 8.79 8.78 23.04 0 31.82l-79.91 79.91c-5.66 5.66-5.66 14.84 0 20.5l.71.71c5.66 5.66 14.84 5.66 20.51 0l58.69-58.69c8.78-8.79 23.03-8.79 31.82 0 8.78 8.79 8.78 23.03 0 31.82z" fill="#ffe1ba"/><path d="m497 92h-30c-8.284 0-15 6.716-15 15s6.716 15 15 15h30c8.284 0 15-6.716 15-15s-6.716-15-15-15z" fill="#fed843"/><path d="m476.606 4.393c-5.857-5.858-15.355-5.858-21.213 0l-30 30c-5.858 5.858-5.858 15.355 0 21.213s15.356 5.858 21.213 0l30-30c5.859-5.857 5.859-15.355 0-21.213z" fill="#fed843"/><path d="m406.53 306.7-175.01 175.01c-46.87 46.86-133.45 36.26-180.32-10.61l191.28-190.56c5.66 5.66 14.84 5.66 20.5 0l79.91-79.91c8.78-8.78 23.03-8.78 31.82 0 8.78 8.79 8.78 23.04 0 31.82l-79.91 79.91c-5.66 5.66-5.66 14.84 0 20.5l.71.71c5.66 5.66 14.84 5.66 20.51 0l58.69-58.69c8.78-8.79 23.03-8.79 31.82 0 8.78 8.79 8.78 23.03 0 31.82z" fill="#ffbfab"/></g></svg>