<svg id="Flat" height="512" viewBox="0 0 512 512" width="512" xmlns="http://www.w3.org/2000/svg"><circle cx="200" cy="136" fill="#d0d2d4" r="80"/><path d="m328 296v192h-240v-144a104.011 104.011 0 0 1 11.85-48z" fill="#f78a25"/><path d="m328 88v208h-228.15c10.26-19.79 26.81-36.95 48.2-49.13l76.84-39.61c24.38-13.88 39.11-37.7 39.11-63.26a56 56 0 0 0 -112 0 32 32 0 0 1 -64 0v-56a64 64 0 0 1 64-64h112a64 64 0 0 1 64 64z" fill="#ffb632"/><rect fill="#e9eef2" height="48" rx="24" width="240" x="184" y="120"/><g fill="#c76f1e"><path d="m200 400h-64a8 8 0 0 1 0-16h64a8 8 0 0 1 0 16z"/><path d="m280 400h-48a8 8 0 0 1 0-16h48a8 8 0 0 1 0 16z"/><path d="m280 352h-112a8 8 0 0 1 0-16h112a8 8 0 0 1 0 16z"/><path d="m280 448h-144a8 8 0 0 1 0-16h144a8 8 0 0 1 0 16z"/><circle cx="136" cy="344" r="8"/></g></svg>