<svg id="Capa_1" enable-background="new 0 0 512 512" height="512" viewBox="0 0 512 512" width="512" xmlns="http://www.w3.org/2000/svg"><g><path d="m272 195.992h-15v60 60h15c33.091 0 60-26.909 60-60s-26.909-60-60-60z" fill="#d5e8fe"/><path d="m272 315.992c33.091 0 60-26.909 60-60h-75v60z" fill="#b5dbff"/><path d="m106 150.992h-91c-8.291 0-15 6.709-15 15v90 90c0 8.291 6.709 15 15 15h91l30-37.5v-67.5-87.656z" fill="#d5e8fe"/><path d="m15 360.992h91l30-37.5v-67.5h-136v90c0 8.291 6.709 15 15 15z" fill="#b5dbff"/><g fill="#6aa9ff"><path d="m446.023 96.969c-5.859-5.859-15.352-5.859-21.211 0s-5.859 15.352 0 21.211c36.885 36.885 57.188 85.825 57.188 137.812s-20.303 100.928-57.188 137.813c-5.859 5.859-5.859 15.352 0 21.211s15.352 5.859 21.211 0c42.54-42.539 65.977-99.024 65.977-159.024s-23.437-116.484-65.977-159.023z"/><path d="m382.42 160.572c-5.859-5.859-15.352-5.859-21.211 0-5.859 5.845-5.859 15.352 0 21.211 19.849 19.864 30.791 46.231 30.791 74.209s-10.942 54.346-30.791 74.209c-5.859 5.859-5.859 15.366 0 21.211 5.859 5.859 15.352 5.859 21.211 0 25.532-25.547 39.58-59.429 39.58-95.42s-14.048-69.873-39.58-95.42z"/></g><path d="m424.813 415.016c5.859 5.859 15.352 5.859 21.211 0 42.539-42.539 65.976-99.024 65.976-159.024h-30c0 51.987-20.303 100.928-57.188 137.813-5.859 5.859-5.859 15.351.001 21.211z" fill="#4895ff"/><path d="m361.209 351.412c5.859 5.859 15.352 5.859 21.211 0 25.532-25.547 39.58-59.429 39.58-95.42h-30c0 27.979-10.942 54.346-30.791 74.209-5.859 5.86-5.859 15.367 0 21.211z" fill="#4895ff"/><path d="m261.746 31.769c-6.108-2.021-12.861.073-16.743 5.215-33.091 44.077-100.815 114.008-139.003 114.008v105 105c38.188 0 105.912 69.932 139.003 114.009 3.889 5.173 10.657 7.262 16.743 5.215 6.123-2.036 10.254-7.764 10.254-14.224v-210-210c0-6.46-4.131-12.187-10.254-14.223z" fill="#47568c"/><path d="m245.003 475.001c3.889 5.173 10.657 7.262 16.743 5.215 6.123-2.036 10.254-7.764 10.254-14.224v-210h-166v105c38.188 0 105.912 69.932 139.003 114.009z" fill="#29376d"/></g></svg>