<?xml version="1.0" encoding="iso-8859-1"?>
<!-- Generator: Adobe Illustrator 19.0.0, SVG Export Plug-In . SVG Version: 6.00 Build 0)  -->
<svg version="1.1" id="Capa_1" xmlns="http://www.w3.org/2000/svg" xmlns:xlink="http://www.w3.org/1999/xlink" x="0px" y="0px"
	 viewBox="0 0 506.24 506.24" style="enable-background:new 0 0 506.24 506.24;" xml:space="preserve">
<g>
	<g>
		<g>
			<path d="M432.56,318.56l29.68,11.936c4.315-10.739,7.714-21.824,10.16-33.136l-31.28-6.784
				C439.054,300.127,436.191,309.488,432.56,318.56z"/>
			<path d="M393.568,377.568l22.624,22.64c11.671-11.672,21.919-24.685,30.528-38.768l-27.2-16.672
				C412.2,356.691,403.488,367.702,393.568,377.568z"/>
			<rect x="253.12" y="333.12" width="32" height="32"/>
			<path d="M488.432,40.432l-22.624-22.624L285.12,198.496V0l-166.4,157.12h-89.6v192h89.6l8.08,7.648L17.808,465.808l22.624,22.624
				l109.696-109.696L285.12,506.24V397.12h-32V432l-80.368-75.888l80.368-80.368v25.376h32v-57.376l57.6-57.6
				c33.278,44.566,28.844,106.794-10.416,146.192l22.624,22.624c51.751-51.895,56.328-134.359,10.64-191.664l31.136-31.136
				c31.132,32.569,48.478,75.905,48.416,120.96c0,2.816-0.08,5.616-0.208,8.432l32,1.472c0.208-3.296,0.208-6.608,0.208-9.904
				c0.094-53.551-20.629-105.043-57.792-143.6L488.432,40.432z M253.12,230.496L149.488,334.128L131.52,317.12h-70.4v-128h70.4
				l121.6-114.88V230.496z"/>
		</g>
	</g>
</g>
<g>
</g>
<g>
</g>
<g>
</g>
<g>
</g>
<g>
</g>
<g>
</g>
<g>
</g>
<g>
</g>
<g>
</g>
<g>
</g>
<g>
</g>
<g>
</g>
<g>
</g>
<g>
</g>
<g>
</g>
</svg>
